<svg xmlns="http://www.w3.org/2000/svg" xmlns:xlink="http://www.w3.org/1999/xlink" viewBox="0 0 180.82 171.87"><defs><style>.cls-1,.cls-3{fill:#fff;}.cls-2{fill:url(#Degradado_sin_nombre_31);}.cls-3{font-size:14.91px;font-family:Poppins-Medium, Poppins;font-weight:500;letter-spacing:0.02em;}</style><linearGradient id="Degradado_sin_nombre_31" x1="19.57" y1="39.99" x2="161.26" y2="39.99" gradientUnits="userSpaceOnUse"><stop offset="0" stop-color="#ff8a98"/><stop offset="0.1" stop-color="#fc7d8a"/><stop offset="0.3" stop-color="#f45a66"/><stop offset="0.56" stop-color="#e7232c"/><stop offset="0.7" stop-color="#df0209"/></linearGradient></defs><g id="Capa_2" data-name="Capa 2"><g id="Capa_1-2" data-name="Capa 1"><path class="cls-1" d="M12.85,91H31.52a1.39,1.39,0,0,1,1.39,1.44L31.77,121h.16L44.73,91.8A1.39,1.39,0,0,1,46,91H64.55a1.39,1.39,0,0,1,1.35,1.71L54.44,140.62a1.39,1.39,0,0,1-1.35,1.07h-11A1.4,1.4,0,0,1,40.71,140l8.61-36.08h-.16l-16.54,37a1.39,1.39,0,0,1-1.27.82H23a1.38,1.38,0,0,1-1.38-1.43l1.07-36.36h-.16l-8.76,36.72a1.39,1.39,0,0,1-1.35,1.07h-11A1.39,1.39,0,0,1,0,140L11.5,92A1.39,1.39,0,0,1,12.85,91Z"/><path class="cls-1" d="M78,142.68c-16.83,0-16.19-9.16-13.48-20.24,2.4-10.09,6.94-20.18,23.13-20.18,16.83,0,16.19,9.17,13.48,20.25C98.77,132.6,94.22,142.68,78,142.68Zm2-8.24c3.27,0,4.46-2.27,6.78-11.93s2.15-12-1.12-12-4.47,2.28-6.86,12S76.84,134.44,80,134.44Z"/><path class="cls-1" d="M109.54,103.26h11.88a1.39,1.39,0,0,1,1.38,1.52l-2.41,26.11h.16l10.26-26.74a1.39,1.39,0,0,1,1.3-.89h11.61a1.39,1.39,0,0,1,1.23,2l-18.27,35.65a1.39,1.39,0,0,1-1.24.76H110.72a1.37,1.37,0,0,1-1.38-1.34l-1.19-35.66A1.39,1.39,0,0,1,109.54,103.26Z"/><path class="cls-1" d="M158.65,124.64a1.39,1.39,0,0,0-1.35,1.07l-.94,4c-1,4.13.64,5.19,2.63,5.19,2.38,0,4.2-1.23,5.41-5.64a1.39,1.39,0,0,1,1.34-1h10a1.39,1.39,0,0,1,1.33,1.8,17.28,17.28,0,0,1-6.12,8.93c-3.27,2.49-7.73,3.76-13.71,3.76-13.88,0-17-5.54-13.56-20.17s10.29-20.25,23.21-20.25c11.48,0,16.19,4.55,12.92,18.47l-.7,2.85a1.39,1.39,0,0,1-1.35,1.06Zm8.87-8.67c1-4,.48-5.89-2.55-5.89s-4.38,1.85-5.34,5.89h0a1.39,1.39,0,0,0,1.35,1.71h5a1.39,1.39,0,0,0,1.36-1.07Z"/><path class="cls-2" d="M44,75.72a14.36,14.36,0,0,1-19.52.64,14.19,14.19,0,0,1-2.1-19.25,64,64,0,0,1,6.39-6.69q23-23,46-46.05A14.38,14.38,0,0,1,90.62,1.1c5.53,2.31,8.75,7.21,8.75,11.76,0,5.66-1.51,9.07-4.4,12q-20,20-40,40C51.29,68.47,47.71,72.15,44,75.72ZM161.25,65.27q0-25.56,0-51.12A14,14,0,0,0,152.4,1.08a14.53,14.53,0,0,0-15.55,3Q111.4,29.59,86,55.1c-5.9,5.92-6,15-.25,20.67s14.68,5.46,20.54-.4q11.25-11.22,22.45-22.48c1.1-1.1,2-2.38,3-3.58l.84.56V52c0,4.47-.07,9,0,13.42.14,8.49,6.37,14.65,14.66,14.56C155.23,79.89,161.24,73.62,161.25,65.27Z"/><text class="cls-3" transform="translate(49.41 163.19) scale(1.12 1)">By LINHER</text></g></g></svg>