<svg xmlns="http://www.w3.org/2000/svg" xmlns:xlink="http://www.w3.org/1999/xlink" viewBox="0 0 279.09 80.9"><defs><style>.cls-1,.cls-3{fill:#fff;}.cls-2{fill:url(#Degradado_sin_nombre_31);}.cls-3{font-size:14.91px;font-family:Poppins-Medium, Poppins;font-weight:500;letter-spacing:0.02em;}</style><linearGradient id="Degradado_sin_nombre_31" x1="187.72" y1="30.83" x2="275.77" y2="30.83" gradientUnits="userSpaceOnUse"><stop offset="0" stop-color="#ff8a98"/><stop offset="0.1" stop-color="#fc7d8a"/><stop offset="0.3" stop-color="#f45a66"/><stop offset="0.56" stop-color="#e7232c"/><stop offset="0.7" stop-color="#df0209"/></linearGradient></defs><g id="Capa_2" data-name="Capa 2"><g id="Capa_1-2" data-name="Capa 1"><path class="cls-1" d="M12.85,0H31.52a1.39,1.39,0,0,1,1.39,1.44L31.77,30.05h.16L44.73.83A1.39,1.39,0,0,1,46,0H64.55A1.39,1.39,0,0,1,65.9,1.71L54.44,49.65a1.39,1.39,0,0,1-1.35,1.07h-11A1.4,1.4,0,0,1,40.71,49l8.61-36.08h-.16l-16.54,37a1.39,1.39,0,0,1-1.27.82H23a1.38,1.38,0,0,1-1.38-1.43l1.07-36.36h-.16L13.76,49.65a1.39,1.39,0,0,1-1.35,1.07h-11A1.39,1.39,0,0,1,0,49L11.5,1.07A1.39,1.39,0,0,1,12.85,0Z"/><path class="cls-1" d="M78,51.72c-16.83,0-16.19-9.17-13.48-20.25C67,21.38,71.49,11.29,87.68,11.29c16.83,0,16.19,9.17,13.48,20.25C98.77,41.63,94.22,51.72,78,51.72Zm2-8.25c3.27,0,4.46-2.27,6.78-11.93s2.15-12-1.12-12-4.47,2.27-6.86,12S76.84,43.47,80,43.47Z"/><path class="cls-1" d="M109.54,12.29h11.88a1.39,1.39,0,0,1,1.38,1.52l-2.41,26.11h.16l10.26-26.74a1.39,1.39,0,0,1,1.3-.89h11.61a1.39,1.39,0,0,1,1.23,2L126.68,50a1.4,1.4,0,0,1-1.24.75H110.72a1.37,1.37,0,0,1-1.38-1.34l-1.19-35.66A1.39,1.39,0,0,1,109.54,12.29Z"/><path class="cls-1" d="M158.65,33.67a1.39,1.39,0,0,0-1.35,1.07l-.94,4c-1,4.12.64,5.18,2.63,5.18,2.38,0,4.2-1.23,5.41-5.64a1.39,1.39,0,0,1,1.34-1h10a1.39,1.39,0,0,1,1.33,1.8A17.28,17.28,0,0,1,171,48c-3.27,2.49-7.73,3.77-13.71,3.77-13.88,0-17-5.55-13.56-20.18S154,11.29,166.89,11.29c11.48,0,16.19,4.55,12.92,18.47l-.7,2.85a1.39,1.39,0,0,1-1.35,1.06ZM167.52,25c1-4.05.48-5.9-2.55-5.9S160.59,21,159.63,25h0a1.38,1.38,0,0,0,1.35,1.7h5a1.39,1.39,0,0,0,1.36-1.07Z"/><path class="cls-2" d="M202.92,53a8.94,8.94,0,0,1-12.14.4,8.82,8.82,0,0,1-1.3-12,41,41,0,0,1,4-4.16L222.05,8.7a9,9,0,0,1,9.83-2A8.35,8.35,0,0,1,237.31,14c0,3.52-.94,5.64-2.73,7.43q-12.47,12.44-24.89,24.88C207.43,48.53,205.21,50.81,202.92,53Zm72.84-6.49q0-15.88,0-31.77a8.67,8.67,0,0,0-5.5-8.12,9,9,0,0,0-9.66,1.89Q244.78,24.37,229,40.22a8.92,8.92,0,1,0,12.61,12.6q7-7,13.95-14c.68-.69,1.25-1.48,1.88-2.23l.52.35v1.32c0,2.78,0,5.56,0,8.34a8.92,8.92,0,1,0,17.83-.09Z"/><text class="cls-3" transform="translate(197.09 72.22) scale(1.12 1)">By LINHER</text></g></g></svg>