<svg xmlns="http://www.w3.org/2000/svg" xmlns:xlink="http://www.w3.org/1999/xlink" viewBox="0 0 141.69 79.98"><defs><style>.cls-1{fill:url(#Degradado_sin_nombre_31);}</style><linearGradient id="Degradado_sin_nombre_31" y1="39.99" x2="141.69" y2="39.99" gradientUnits="userSpaceOnUse"><stop offset="0" stop-color="#ff8a98"/><stop offset="0.1" stop-color="#fc7d8a"/><stop offset="0.3" stop-color="#f45a66"/><stop offset="0.56" stop-color="#e7232c"/><stop offset="0.7" stop-color="#df0209"/></linearGradient></defs><g id="Capa_2" data-name="Capa 2"><g id="Capa_1-2" data-name="Capa 1"><path class="cls-1" d="M24.46,75.72a14.37,14.37,0,0,1-19.53.64,14.19,14.19,0,0,1-2.1-19.25,63.06,63.06,0,0,1,6.4-6.69q23-23,46-46.05A14.39,14.39,0,0,1,71.06,1.1c5.52,2.31,8.74,7.21,8.74,11.76,0,5.66-1.5,9.07-4.4,12q-20,20-40.05,40C31.72,68.47,28.14,72.15,24.46,75.72ZM141.68,65.27q0-25.56,0-51.12a14,14,0,0,0-8.85-13.07,14.53,14.53,0,0,0-15.55,3q-25.45,25.47-50.9,51c-5.9,5.92-6,15-.24,20.67s14.67,5.46,20.53-.4q11.25-11.22,22.46-22.48c1.09-1.1,2-2.38,3-3.58l.84.56V52c0,4.47-.06,9,0,13.42.13,8.49,6.37,14.65,14.65,14.56C135.67,79.89,141.68,73.62,141.68,65.27Z"/></g></g></svg>