<svg xmlns="http://www.w3.org/2000/svg" xmlns:xlink="http://www.w3.org/1999/xlink" viewBox="0 0 248.66 248.66"><defs><style>.cls-1{fill:url(#Degradado_sin_nombre_31);}.cls-2{fill:#fff;}</style><linearGradient id="Degradado_sin_nombre_31" x1="39.41" y1="271.41" x2="209.25" y2="-22.75" gradientUnits="userSpaceOnUse"><stop offset="0" stop-color="#ff8a98"/><stop offset="0.1" stop-color="#fc7d8a"/><stop offset="0.3" stop-color="#f45a66"/><stop offset="0.56" stop-color="#e7232c"/><stop offset="0.7" stop-color="#df0209"/></linearGradient></defs><g id="Capa_2" data-name="Capa 2"><g id="Capa_1-2" data-name="Capa 1"><rect class="cls-1" width="248.66" height="248.66"/><path class="cls-2" d="M76,161.55a15,15,0,0,1-20.34.68,14.78,14.78,0,0,1-2.19-20.06,67.34,67.34,0,0,1,6.66-7q24-24,48-48a15,15,0,0,1,16.47-3.42c5.76,2.41,9.11,7.52,9.12,12.26,0,5.89-1.58,9.45-4.59,12.46q-20.88,20.83-41.74,41.71C83.56,154,79.83,157.84,76,161.55Z"/><path class="cls-2" d="M183.51,166c-8.63.1-15.13-6.32-15.27-15.18-.07-4.66,0-9.32,0-14v-2.22l-.88-.58c-1,1.25-2,2.58-3.14,3.73q-11.67,11.74-23.4,23.42c-6.11,6.11-15.46,6.28-21.4.42s-5.89-15.37.26-21.54q26.5-26.56,53-53.12a15.14,15.14,0,0,1,16.2-3.17,14.56,14.56,0,0,1,9.21,13.62q0,26.64,0,53.27C198.14,159.37,191.87,165.9,183.51,166Z"/></g></g></svg>